%FSTAX23Y23*%
%MOIN*%
%SFA1B1*%

%IPPOS*%
%ADD10R,0.080000X0.060000*%
%ADD11R,0.060000X0.080000*%
%ADD12R,0.072830X0.051180*%
%ADD13O,0.010630X0.059050*%
%ADD14O,0.059050X0.010630*%
%ADD15R,0.220470X0.082680*%
%ADD16R,0.051180X0.072830*%
%ADD17R,0.023600X0.055100*%
%ADD18R,0.020470X0.037400*%
%ADD19O,0.023150X0.080510*%
%ADD20R,0.107090X0.037800*%
%ADD21R,0.114570X0.021650*%
%ADD22R,0.041340X0.047240*%
%ADD23R,0.041340X0.094090*%
%ADD24R,0.041340X0.042520*%
%ADD25R,0.028350X0.030710*%
%ADD26R,0.019680X0.039370*%
%ADD27R,0.082680X0.037400*%
%ADD28R,0.037400X0.082680*%
%ADD29R,0.052360X0.052360*%
%ADD32C,0.053940*%
%ADD33R,0.053940X0.053940*%
%ADD34R,0.059050X0.059050*%
%ADD35C,0.059050*%
%ADD36R,0.063780X0.063780*%
%ADD37C,0.063780*%
%ADD38C,0.060000*%
%ADD39C,0.074000*%
%ADD40R,0.053940X0.053940*%
%LNesp_stm_v2-1*%
%LPD*%
G54D10*
X03162Y0265D03*
Y0254D03*
X03385Y0265D03*
Y0254D03*
X03145Y02155D03*
Y02265D03*
X03755Y02155D03*
Y02265D03*
X0443Y0248D03*
Y0259D03*
G54D11*
X03725Y02565D03*
X03615D03*
X0333Y03195D03*
X0344D03*
X04225Y02555D03*
X04115D03*
G54D12*
X0358Y03322D03*
Y03437D03*
X046D03*
Y03322D03*
X0316Y0388D03*
Y03995D03*
Y03577D03*
Y03462D03*
X01605Y04212D03*
Y04098D03*
X01855Y03877D03*
Y03762D03*
X02942Y02533D03*
Y02648D03*
X0272Y02533D03*
Y02648D03*
X0157Y02533D03*
Y02648D03*
X0182Y02533D03*
Y02648D03*
X01605Y03762D03*
Y03877D03*
G54D13*
X03906Y03867D03*
X03926D03*
X03946D03*
X03965D03*
X03985D03*
X04005D03*
X04024D03*
X04044D03*
X04064D03*
X04083D03*
X04103D03*
X04123D03*
Y04202D03*
X04103D03*
X04083D03*
X04064D03*
X04044D03*
X04024D03*
X04005D03*
X03985D03*
X03965D03*
X03946D03*
X03926D03*
X03906D03*
G54D14*
X04182Y03926D03*
Y03946D03*
Y03966D03*
Y03985D03*
Y04005D03*
Y04025D03*
Y04044D03*
Y04064D03*
Y04084D03*
Y04103D03*
Y04123D03*
Y04143D03*
X03847D03*
Y04123D03*
Y04103D03*
Y04084D03*
Y04064D03*
Y04044D03*
Y04025D03*
Y04005D03*
Y03985D03*
Y03966D03*
Y03946D03*
Y03926D03*
G54D15*
X04277Y03455D03*
X03902D03*
G54D16*
X03592Y04265D03*
X03477D03*
X03592Y0379D03*
X03477D03*
X03592Y04027D03*
X03477D03*
X04447Y04125D03*
X04562D03*
X04447Y0382D03*
X04562D03*
X03837Y0443D03*
X03722D03*
G54D17*
X0371Y03046D03*
X0366D03*
X0361D03*
X0356D03*
Y02834D03*
X0361D03*
X0366D03*
X0371D03*
G54D18*
X03475Y0218D03*
X03437Y02259D03*
X03512D03*
G54D19*
X04175Y028D03*
X04225D03*
X04275D03*
X04325D03*
X04175Y03019D03*
X04225D03*
X04275D03*
X04325D03*
G54D20*
X0187Y04096D03*
Y04223D03*
G54D21*
X02374Y02295D03*
X02209D03*
G54D22*
X02499Y02344D03*
X0208Y02321D03*
G54D23*
X02499Y02469D03*
G54D24*
X0208Y02424D03*
G54D25*
X02081Y02474D03*
G54D26*
X02443Y0258D03*
X024D03*
X02357D03*
X02313D03*
X0227D03*
X02227D03*
X02183D03*
X0214D03*
G54D27*
X02118Y0426D03*
Y0421D03*
Y0416D03*
Y0411D03*
Y0406D03*
Y0401D03*
Y0396D03*
Y0391D03*
Y0386D03*
Y0381D03*
Y0376D03*
Y0371D03*
Y0366D03*
Y0361D03*
X02826Y0361D03*
Y0366D03*
Y0371D03*
Y0376D03*
Y0381D03*
Y0386D03*
Y0391D03*
Y0396D03*
Y0401D03*
Y0406D03*
Y0411D03*
Y0416D03*
Y0421D03*
Y0426D03*
G54D28*
X02247Y03551D03*
X02297D03*
X02347D03*
X02397D03*
X02447D03*
X02497D03*
X02547D03*
X02597D03*
X02647D03*
X02697D03*
G54D29*
X02433Y03965D03*
X0236D03*
X02505D03*
Y04037D03*
X02433D03*
X0236D03*
Y03892D03*
X02433D03*
X02505D03*
G54D32*
X0273Y02175D03*
X0283D03*
X049Y02625D03*
Y02725D03*
Y02825D03*
Y02925D03*
Y03025D03*
Y03125D03*
Y03225D03*
Y03325D03*
Y03425D03*
Y03525D03*
Y03625D03*
Y03725D03*
Y03825D03*
Y03925D03*
Y04025D03*
Y04125D03*
Y04225D03*
Y04325D03*
Y04425D03*
Y04525D03*
Y04625D03*
G54D33*
X0293Y02175D03*
G54D34*
X03895Y0465D03*
X04355D03*
G54D35*
X03795Y0465D03*
X03695D03*
X04255D03*
X04155D03*
G54D36*
X04155Y0217D03*
X04655D03*
G54D37*
X04255Y0217D03*
X04755D03*
G54D38*
X02549Y03174D03*
Y0297D03*
X02215Y02965D03*
Y0317D03*
G54D39*
X02195Y0479D03*
X02095D03*
X01995D03*
X01895D03*
X01795D03*
X01695D03*
G54D40*
X049Y02525D03*
M02*