%FSTAX23Y23*%
%MOIN*%
%SFA1B1*%

%IPPOS*%
%ADD30C,0.010000*%
%ADD44C,0.007870*%
%ADD45C,0.015750*%
%ADD46C,0.007870*%
%ADD47C,0.011810*%
%ADD48C,0.005000*%
%ADD49C,0.008000*%
%ADD50C,0.007000*%
%ADD51C,0.003940*%
%ADD52C,0.006000*%
%LNesp_stm_v2-1*%
%LPD*%
G54D30*
X03918Y03923D02*
D01*
X03918Y03924*
X03918Y03924*
X03918Y03924*
X03918Y03925*
X03918Y03925*
X03917Y03926*
X03917Y03926*
X03917Y03927*
X03917Y03927*
X03916Y03927*
X03916Y03928*
X03916Y03928*
X03915Y03928*
X03915Y03929*
X03915Y03929*
X03914Y03929*
X03914Y03929*
X03913Y03929*
X03913Y0393*
X03913Y0393*
X03912Y0393*
X03912Y0393*
X03911*
X03911Y0393*
X0391Y0393*
X0391Y0393*
X03909Y03929*
X03909Y03929*
X03908Y03929*
X03908Y03929*
X03908Y03929*
X03907Y03928*
X03907Y03928*
X03907Y03928*
X03906Y03927*
X03906Y03927*
X03906Y03927*
X03905Y03926*
X03905Y03926*
X03905Y03925*
X03905Y03925*
X03905Y03924*
X03905Y03924*
X03905Y03924*
X03905Y03923*
X03905Y03923*
X03905Y03922*
X03905Y03922*
X03905Y03921*
X03905Y03921*
X03905Y0392*
X03905Y0392*
X03906Y0392*
X03906Y03919*
X03906Y03919*
X03907Y03918*
X03907Y03918*
X03907Y03918*
X03908Y03918*
X03908Y03917*
X03908Y03917*
X03909Y03917*
X03909Y03917*
X0391Y03917*
X0391Y03916*
X03911Y03916*
X03911Y03916*
X03912*
X03912Y03916*
X03913Y03916*
X03913Y03917*
X03913Y03917*
X03914Y03917*
X03914Y03917*
X03915Y03917*
X03915Y03918*
X03915Y03918*
X03916Y03918*
X03916Y03918*
X03916Y03919*
X03917Y03919*
X03917Y0392*
X03917Y0392*
X03917Y0392*
X03918Y03921*
X03918Y03921*
X03918Y03922*
X03918Y03922*
X03918Y03923*
X03918Y03923*
X03763Y0302D02*
D01*
X03762Y0302*
X03762Y03021*
X03762Y03022*
X03762Y03023*
X03762Y03024*
X03761Y03025*
X03761Y03026*
X03761Y03026*
X0376Y03027*
X03759Y03028*
X03759Y03029*
X03758Y03029*
X03758Y0303*
X03757Y0303*
X03756Y03031*
X03755Y03031*
X03754Y03032*
X03754Y03032*
X03753Y03032*
X03752Y03032*
X03751Y03032*
X0375Y03032*
X03749*
X03748Y03032*
X03747Y03032*
X03746Y03032*
X03745Y03032*
X03745Y03032*
X03744Y03031*
X03743Y03031*
X03742Y0303*
X03741Y0303*
X03741Y03029*
X0374Y03029*
X0374Y03028*
X03739Y03027*
X03738Y03026*
X03738Y03026*
X03738Y03025*
X03737Y03024*
X03737Y03023*
X03737Y03022*
X03737Y03021*
X03737Y0302*
X03737Y0302*
X03737Y03019*
X03737Y03018*
X03737Y03017*
X03737Y03016*
X03737Y03015*
X03738Y03014*
X03738Y03013*
X03738Y03013*
X03739Y03012*
X0374Y03011*
X0374Y0301*
X03741Y0301*
X03741Y03009*
X03742Y03009*
X03743Y03008*
X03744Y03008*
X03745Y03007*
X03745Y03007*
X03746Y03007*
X03747Y03007*
X03748Y03007*
X03749Y03007*
X0375*
X03751Y03007*
X03752Y03007*
X03753Y03007*
X03754Y03007*
X03754Y03007*
X03755Y03008*
X03756Y03008*
X03757Y03009*
X03758Y03009*
X03758Y0301*
X03759Y0301*
X03759Y03011*
X0376Y03012*
X03761Y03013*
X03761Y03013*
X03761Y03014*
X03762Y03015*
X03762Y03016*
X03762Y03017*
X03762Y03018*
X03762Y03019*
X03763Y0302*
X02909Y03069D02*
D01*
X02909Y03076*
X02908Y03083*
X02907Y0309*
X02905Y03097*
X02903Y03104*
X029Y0311*
X02897Y03116*
X02894Y03122*
X0289Y03128*
X02886Y03134*
X02881Y03139*
X02876Y03144*
X02871Y03148*
X02865Y03152*
X02859Y03156*
X02853Y03159*
X02847Y03162*
X0284Y03165*
X02833Y03167*
X02826Y03168*
X02819Y03169*
X02813Y03169*
X02806*
X02799Y03169*
X02792Y03168*
X02785Y03167*
X02778Y03165*
X02772Y03162*
X02765Y03159*
X02759Y03156*
X02753Y03152*
X02747Y03148*
X02742Y03144*
X02737Y03139*
X02732Y03134*
X02728Y03128*
X02724Y03122*
X02721Y03116*
X02718Y0311*
X02715Y03104*
X02713Y03097*
X02711Y0309*
X0271Y03083*
X02709Y03076*
X02709Y03069*
X02709Y03063*
X0271Y03056*
X02711Y03049*
X02713Y03042*
X02715Y03035*
X02718Y03029*
X02721Y03023*
X02724Y03016*
X02728Y03011*
X02732Y03005*
X02737Y03*
X02742Y02995*
X02747Y02991*
X02753Y02987*
X02759Y02983*
X02765Y0298*
X02772Y02977*
X02778Y02974*
X02785Y02972*
X02792Y02971*
X02799Y0297*
X02806Y0297*
X02813*
X02819Y0297*
X02826Y02971*
X02833Y02972*
X0284Y02974*
X02847Y02977*
X02853Y0298*
X02859Y02983*
X02865Y02987*
X02871Y02991*
X02876Y02995*
X02881Y03*
X02886Y03005*
X0289Y03011*
X02894Y03016*
X02897Y03023*
X029Y03029*
X02903Y03035*
X02905Y03042*
X02907Y03049*
X02908Y03056*
X02909Y03063*
X02909Y03069*
X02055Y0307D02*
D01*
X02055Y03076*
X02054Y03083*
X02053Y0309*
X02051Y03097*
X02049Y03104*
X02046Y0311*
X02043Y03116*
X0204Y03122*
X02036Y03128*
X02032Y03134*
X02027Y03139*
X02022Y03144*
X02017Y03148*
X02011Y03152*
X02005Y03156*
X01999Y03159*
X01992Y03162*
X01986Y03165*
X01979Y03167*
X01972Y03168*
X01965Y03169*
X01958Y03169*
X01951*
X01944Y03169*
X01938Y03168*
X01931Y03167*
X01924Y03165*
X01917Y03162*
X01911Y03159*
X01905Y03156*
X01899Y03152*
X01893Y03148*
X01888Y03144*
X01883Y03139*
X01878Y03134*
X01874Y03128*
X0187Y03122*
X01867Y03116*
X01864Y0311*
X01861Y03104*
X01859Y03097*
X01857Y0309*
X01856Y03083*
X01855Y03076*
X01855Y0307*
X01855Y03063*
X01856Y03056*
X01857Y03049*
X01859Y03042*
X01861Y03035*
X01864Y03029*
X01867Y03023*
X0187Y03017*
X01874Y03011*
X01878Y03005*
X01883Y03*
X01888Y02995*
X01893Y02991*
X01899Y02987*
X01905Y02983*
X01911Y0298*
X01917Y02977*
X01924Y02974*
X01931Y02972*
X01938Y02971*
X01944Y0297*
X01951Y0297*
X01958*
X01965Y0297*
X01972Y02971*
X01979Y02972*
X01986Y02974*
X01992Y02977*
X01999Y0298*
X02005Y02983*
X02011Y02987*
X02017Y02991*
X02022Y02995*
X02027Y03*
X02032Y03005*
X02036Y03011*
X0204Y03017*
X02043Y03023*
X02046Y03029*
X02049Y03035*
X02051Y03042*
X02053Y03049*
X02054Y03056*
X02055Y03063*
X02055Y0307*
X03537Y02861D02*
X03544D01*
X03537D02*
Y03019D01*
X03544*
X03713Y03011D02*
X03733Y0299D01*
Y02861D02*
Y0299D01*
X03726Y02861D02*
X03733D01*
X03678D02*
X0369D01*
X03627D02*
X03639D01*
X0358D02*
X03592D01*
X0358Y03019D02*
X03592D01*
X03627D02*
X03639D01*
X03678D02*
X0369D01*
X03075Y02814D02*
Y03325D01*
X02563Y02814D02*
X03075D01*
X02563D02*
Y03325D01*
X03075*
X0244Y02292D02*
X025D01*
X02512Y02304*
X02275Y02292D02*
X02308D01*
X02067D02*
X02143D01*
X02067Y02354D02*
Y02394D01*
Y02591D02*
X02121D01*
X02067Y02499D02*
Y02591D01*
X02159D02*
X02164D01*
X02202D02*
X02208D01*
X02246D02*
X02251D01*
X02289D02*
X02294D01*
X02332D02*
X02338D01*
X02375D02*
X02381D01*
X02419D02*
X02424D01*
X02512Y02525D02*
Y02591D01*
X02462D02*
X02512D01*
Y02377D02*
Y02413D01*
Y02304D02*
Y02311D01*
X02826Y043D02*
Y04554D01*
X02118Y043D02*
Y04554D01*
X02826*
X02118Y04307D02*
X02826D01*
X02827Y04287D02*
Y04307D01*
X02724Y0355D02*
X02827D01*
Y03583*
X02118Y0355D02*
Y03583D01*
Y0355D02*
X0222D01*
X02118Y04287D02*
Y04307D01*
X01689Y02814D02*
Y03325D01*
X02201*
Y02814D02*
Y03325D01*
X01689Y02814D02*
X02201D01*
X03586Y02644D02*
Y02703D01*
X03615*
X03625Y02693*
Y02673*
X03615Y02663*
X03586*
X03605D02*
X03625Y02644D01*
X03675D02*
Y02703D01*
X03645Y02673*
X03685*
X03123Y02719D02*
Y02779D01*
X03153*
X03163Y02769*
Y02749*
X03153Y02739*
X03123*
X03143D02*
X03163Y02719D01*
X03183Y02769D02*
X03193Y02779D01*
X03213*
X03223Y02769*
Y02759*
X03213Y02749*
X03203*
X03213*
X03223Y02739*
Y02729*
X03213Y02719*
X03193*
X03183Y02729*
X03345Y02719D02*
Y02779D01*
X03375*
X03385Y02769*
Y02749*
X03375Y02739*
X03345*
X03365D02*
X03385Y02719D01*
X03445D02*
X03405D01*
X03445Y02759*
Y02769*
X03435Y02779*
X03415*
X03405Y02769*
X02719Y02401D02*
X02699D01*
X02709*
Y02351*
X02699Y02341*
X02689*
X02679Y02351*
X02739Y02341D02*
X02759D01*
X02749*
Y02401*
X02739Y02391*
X0334Y03323D02*
X0333Y03333D01*
X03311*
X03301Y03323*
Y03284*
X03311Y03274*
X0333*
X0334Y03284*
X034Y03333D02*
X0336D01*
Y03303*
X0338Y03313*
X0339*
X034Y03303*
Y03284*
X0339Y03274*
X0337*
X0336Y03284*
X03145Y02383D02*
X03135Y02393D01*
X03116*
X03106Y02383*
Y02344*
X03116Y02334*
X03135*
X03145Y02344*
X03165Y02383D02*
X03175Y02393D01*
X03195*
X03205Y02383*
Y02373*
X03195Y02363*
X03185*
X03195*
X03205Y02353*
Y02344*
X03195Y02334*
X03175*
X03165Y02344*
X03755Y02383D02*
X03745Y02393D01*
X03726*
X03716Y02383*
Y02344*
X03726Y02334*
X03745*
X03755Y02344*
X03815Y02334D02*
X03775D01*
X03815Y02373*
Y02383*
X03805Y02393*
X03785*
X03775Y02383*
X03761Y03678D02*
Y03668D01*
X0378Y03648*
X038Y03668*
Y03678*
X0378Y03648D02*
Y03619D01*
X0382D02*
X0384D01*
X0383*
Y03678*
X0382Y03668*
X01607Y0342D02*
Y03371D01*
X01617Y03361*
X01636*
X01646Y03371*
Y0342*
X01706D02*
X01686Y0341D01*
X01666Y0339*
Y03371*
X01676Y03361*
X01696*
X01706Y03371*
Y0338*
X01696Y0339*
X01666*
X02066Y04649D02*
Y046D01*
X02076Y0459*
X02095*
X02105Y046*
Y04649*
X02165D02*
X02125D01*
Y04619*
X02145Y04629*
X02155*
X02165Y04619*
Y046*
X02155Y0459*
X02135*
X02125Y046*
X02526Y0342D02*
Y03371D01*
X02536Y03361*
X02555*
X02565Y03371*
Y0342*
X02615Y03361D02*
Y0342D01*
X02585Y0339*
X02625*
X04158Y03152D02*
Y03103D01*
X04168Y03093*
X04187*
X04197Y03103*
Y03152*
X04217Y03142D02*
X04227Y03152D01*
X04247*
X04257Y03142*
Y03132*
X04247Y03122*
X04237*
X04247*
X04257Y03112*
Y03103*
X04247Y03093*
X04227*
X04217Y03103*
X03542Y03165D02*
Y03116D01*
X03552Y03106*
X03571*
X03581Y03116*
Y03165*
X03641Y03106D02*
X03601D01*
X03641Y03145*
Y03155*
X03631Y03165*
X03611*
X03601Y03155*
X03826Y04323D02*
Y04273D01*
X03836Y04263*
X03856*
X03866Y04273*
Y04323*
X03886Y04263D02*
X03906D01*
X03896*
Y04323*
X03886Y04313*
X01563Y03947D02*
Y04007D01*
X01593*
X01603Y03997*
Y03977*
X01593Y03967*
X01563*
X01583D02*
X01603Y03947D01*
X01623D02*
X01643D01*
X01633*
Y04007*
X01623Y03997*
X01713Y03947D02*
X01673D01*
X01713Y03987*
Y03997*
X01703Y04007*
X01683*
X01673Y03997*
X01528Y02718D02*
Y02778D01*
X01558*
X01568Y02768*
Y02748*
X01558Y02738*
X01528*
X01548D02*
X01568Y02718D01*
X01588D02*
X01608D01*
X01598*
Y02778*
X01588Y02768*
X01638Y02718D02*
X01658D01*
X01648*
Y02778*
X01638Y02768*
X01778Y02718D02*
Y02778D01*
X01808*
X01818Y02768*
Y02748*
X01808Y02738*
X01778*
X01798D02*
X01818Y02718D01*
X01838D02*
X01858D01*
X01848*
Y02778*
X01838Y02768*
X01888D02*
X01898Y02778D01*
X01918*
X01928Y02768*
Y02728*
X01918Y02718*
X01898*
X01888Y02728*
Y02768*
X029Y02718D02*
Y02778D01*
X0293*
X0294Y02768*
Y02748*
X0293Y02738*
X029*
X0292D02*
X0294Y02718D01*
X0296Y02728D02*
X0297Y02718D01*
X0299*
X03Y02728*
Y02768*
X0299Y02778*
X0297*
X0296Y02768*
Y02758*
X0297Y02748*
X03*
X02678Y02718D02*
Y02778D01*
X02708*
X02718Y02768*
Y02748*
X02708Y02738*
X02678*
X02698D02*
X02718Y02718D01*
X02738Y02768D02*
X02748Y02778D01*
X02768*
X02778Y02768*
Y02758*
X02768Y02748*
X02778Y02738*
Y02728*
X02768Y02718*
X02748*
X02738Y02728*
Y02738*
X02748Y02748*
X02738Y02758*
Y02768*
X02748Y02748D02*
X02768D01*
X01814Y03948D02*
Y04007D01*
X01843*
X01853Y03997*
Y03977*
X01843Y03967*
X01814*
X01833D02*
X01853Y03948D01*
X01873Y04007D02*
X01913D01*
Y03997*
X01873Y03958*
Y03948*
X03119Y03648D02*
Y03707D01*
X03148*
X03158Y03697*
Y03677*
X03148Y03667*
X03119*
X03138D02*
X03158Y03648D01*
X03218Y03707D02*
X03198Y03697D01*
X03178Y03677*
Y03658*
X03188Y03648*
X03208*
X03218Y03658*
Y03667*
X03208Y03677*
X03178*
X04086Y02634D02*
Y02693D01*
X04115*
X04125Y02683*
Y02663*
X04115Y02653*
X04086*
X04105D02*
X04125Y02634D01*
X04185Y02693D02*
X04145D01*
Y02663*
X04165Y02673*
X04175*
X04185Y02663*
Y02644*
X04175Y02634*
X04155*
X04145Y02644*
X03447Y04346D02*
Y04405D01*
X03476*
X03486Y04395*
Y04375*
X03476Y04365*
X03447*
X03466D02*
X03486Y04346D01*
X03506D02*
X03526D01*
X03516*
Y04405*
X03506Y04395*
X04111Y04734D02*
Y04793D01*
X0414*
X0415Y04783*
Y04763*
X0414Y04753*
X04111*
X0421Y04734D02*
X0417D01*
X0421Y04773*
Y04783*
X042Y04793*
X0418*
X0417Y04783*
X03651Y04734D02*
Y04793D01*
X0368*
X0369Y04783*
Y04763*
X0368Y04753*
X03651*
X0371Y04734D02*
X0373D01*
X0372*
Y04793*
X0371Y04783*
X01589Y04694D02*
X01569D01*
X01579*
Y04645*
X01569Y04635*
X0156*
X0155Y04645*
X01609Y04635D02*
Y04694D01*
X01639*
X01649Y04684*
Y04664*
X01639Y04654*
X01609*
X01669Y04635D02*
X01689D01*
X01679*
Y04694*
X01669Y04684*
X04121Y02371D02*
X04101D01*
X04111*
Y02321*
X04101Y02311*
X04092*
X04082Y02321*
X04181Y02311D02*
X04141D01*
X04181Y02351*
Y02361*
X04171Y02371*
X04151*
X04141Y02361*
X03406Y02388D02*
Y02329D01*
X03435*
X03445Y02339*
Y02378*
X03435Y02388*
X03406*
X03465Y02329D02*
X03485D01*
X03475*
Y02388*
X03465Y02378*
X02105Y02683D02*
X02095Y02693D01*
X02076*
X02066Y02683*
Y02644*
X02076Y02634*
X02095*
X02105Y02644*
X02125Y02634D02*
Y02673D01*
X02145Y02693*
X02165Y02673*
Y02634*
Y02663*
X02125*
X02185Y02634D02*
Y02693D01*
X02215*
X02225Y02683*
Y02663*
X02215Y02653*
X02185*
X02205D02*
X02225Y02634D01*
X02245Y02693D02*
Y02634D01*
X02275*
X02285Y02644*
Y02683*
X02275Y02693*
X02245*
X02305Y02634D02*
X02325D01*
X02315*
Y02693*
X02305Y02683*
X01603Y04333D02*
X01593Y04343D01*
X01574*
X01564Y04333*
Y04293*
X01574Y04283*
X01593*
X01603Y04293*
X01623Y04283D02*
X01643D01*
X01633*
Y04343*
X01623Y04333*
X01703Y04283D02*
Y04343D01*
X01673Y04313*
X01713*
X01855Y04333D02*
X01845Y04343D01*
X01826*
X01816Y04333*
Y04294*
X01826Y04284*
X01845*
X01855Y04294*
X01875Y04284D02*
X01895D01*
X01885*
Y04343*
X01875Y04333*
X01925D02*
X01935Y04343D01*
X01955*
X01965Y04333*
Y04323*
X01955Y04313*
X01945*
X01955*
X01965Y04303*
Y04294*
X01955Y04284*
X01935*
X01925Y04294*
X0443Y02708D02*
X0442Y02718D01*
X04401*
X04391Y02708*
Y02669*
X04401Y02659*
X0442*
X0443Y02669*
X0445Y02659D02*
X0447D01*
X0446*
Y02718*
X0445Y02708*
X0454Y02659D02*
X045D01*
X0454Y02698*
Y02708*
X0453Y02718*
X0451*
X045Y02708*
X03486Y0392D02*
X03476Y0393D01*
X03457*
X03447Y0392*
Y03881*
X03457Y03871*
X03476*
X03486Y03881*
X03506Y03871D02*
X03526D01*
X03516*
Y0393*
X03506Y0392*
X03556Y03871D02*
X03576D01*
X03566*
Y0393*
X03556Y0392*
X03486Y04158D02*
X03476Y04168D01*
X03457*
X03447Y04158*
Y04118*
X03457Y04108*
X03476*
X03486Y04118*
X03506Y04108D02*
X03526D01*
X03516*
Y04168*
X03506Y04158*
X03556D02*
X03566Y04168D01*
X03586*
X03596Y04158*
Y04118*
X03586Y04108*
X03566*
X03556Y04118*
Y04158*
X04456Y04255D02*
X04446Y04265D01*
X04427*
X04417Y04255*
Y04216*
X04427Y04206*
X04446*
X04456Y04216*
X04476D02*
X04486Y04206D01*
X04506*
X04516Y04216*
Y04255*
X04506Y04265*
X04486*
X04476Y04255*
Y04245*
X04486Y04235*
X04516*
X04456Y0395D02*
X04446Y0396D01*
X04427*
X04417Y0395*
Y03911*
X04427Y03901*
X04446*
X04456Y03911*
X04476Y0395D02*
X04486Y0396D01*
X04506*
X04516Y0395*
Y0394*
X04506Y0393*
X04516Y0392*
Y03911*
X04506Y03901*
X04486*
X04476Y03911*
Y0392*
X04486Y0393*
X04476Y0394*
Y0395*
X04486Y0393D02*
X04506D01*
X03731Y0456D02*
X03721Y0457D01*
X03702*
X03692Y0456*
Y04521*
X03702Y04511*
X03721*
X03731Y04521*
X03751Y0457D02*
X03791D01*
Y0456*
X03751Y04521*
Y04511*
X03158Y04115D02*
X03148Y04125D01*
X03128*
X03118Y04115*
Y04075*
X03128Y04065*
X03148*
X03158Y04075*
X03218Y04125D02*
X03198Y04115D01*
X03178Y04095*
Y04075*
X03188Y04065*
X03208*
X03218Y04075*
Y04085*
X03208Y04095*
X03178*
X04598Y03557D02*
X04588Y03567D01*
X04569*
X04559Y03557*
Y03518*
X04569Y03508*
X04588*
X04598Y03518*
X04648Y03508D02*
Y03567D01*
X04618Y03537*
X04658*
X03578Y03557D02*
X03568Y03567D01*
X03548*
X03538Y03557*
Y03517*
X03548Y03507*
X03568*
X03578Y03517*
X03598Y03507D02*
X03618D01*
X03608*
Y03567*
X03598Y03557*
X04621Y02371D02*
X04601D01*
X04611*
Y02321*
X04601Y02311*
X04591*
X04581Y02321*
X04641Y02361D02*
X04651Y02371D01*
X04671*
X04681Y02361*
Y02351*
X04671Y02341*
X04661*
X04671*
X04681Y02331*
Y02321*
X04671Y02311*
X04651*
X04641Y02321*
X04838Y04775D02*
X04818D01*
X04828*
Y04726*
X04818Y04716*
X04809*
X04799Y04726*
X04888Y04716D02*
Y04775D01*
X04858Y04745*
X04898*
G54D44*
X03009Y02175D02*
D01*
X03009Y02175*
X03009Y02175*
X03009Y02175*
X03009Y02176*
X03009Y02176*
X03009Y02176*
X03009Y02176*
X03008Y02177*
X03008Y02177*
X03008Y02177*
X03008Y02177*
X03008Y02177*
X03008Y02178*
X03007Y02178*
X03007Y02178*
X03007Y02178*
X03007Y02178*
X03006Y02178*
X03006Y02178*
X03006Y02178*
X03006Y02178*
X03005Y02178*
X03005*
X03005Y02178*
X03004Y02178*
X03004Y02178*
X03004Y02178*
X03004Y02178*
X03003Y02178*
X03003Y02178*
X03003Y02178*
X03003Y02178*
X03002Y02177*
X03002Y02177*
X03002Y02177*
X03002Y02177*
X03002Y02177*
X03002Y02176*
X03001Y02176*
X03001Y02176*
X03001Y02176*
X03001Y02175*
X03001Y02175*
X03001Y02175*
X03001Y02175*
X03001Y02174*
X03001Y02174*
X03001Y02174*
X03001Y02173*
X03001Y02173*
X03001Y02173*
X03002Y02173*
X03002Y02172*
X03002Y02172*
X03002Y02172*
X03002Y02172*
X03002Y02172*
X03003Y02171*
X03003Y02171*
X03003Y02171*
X03003Y02171*
X03004Y02171*
X03004Y02171*
X03004Y02171*
X03004Y02171*
X03005Y02171*
X03005Y02171*
X03005*
X03006Y02171*
X03006Y02171*
X03006Y02171*
X03006Y02171*
X03007Y02171*
X03007Y02171*
X03007Y02171*
X03007Y02171*
X03008Y02171*
X03008Y02172*
X03008Y02172*
X03008Y02172*
X03008Y02172*
X03008Y02172*
X03009Y02173*
X03009Y02173*
X03009Y02173*
X03009Y02173*
X03009Y02174*
X03009Y02174*
X03009Y02174*
X03009Y02175*
X04083Y0217D02*
D01*
X04083Y0217*
X04083Y0217*
X04083Y0217*
X04083Y02171*
X04083Y02171*
X04083Y02171*
X04082Y02171*
X04082Y02172*
X04082Y02172*
X04082Y02172*
X04082Y02172*
X04082Y02172*
X04081Y02173*
X04081Y02173*
X04081Y02173*
X04081Y02173*
X0408Y02173*
X0408Y02173*
X0408Y02173*
X0408Y02173*
X04079Y02173*
X04079Y02173*
X04079*
X04078Y02173*
X04078Y02173*
X04078Y02173*
X04078Y02173*
X04077Y02173*
X04077Y02173*
X04077Y02173*
X04077Y02173*
X04076Y02173*
X04076Y02172*
X04076Y02172*
X04076Y02172*
X04076Y02172*
X04076Y02172*
X04075Y02171*
X04075Y02171*
X04075Y02171*
X04075Y02171*
X04075Y0217*
X04075Y0217*
X04075Y0217*
X04075Y0217*
X04075Y02169*
X04075Y02169*
X04075Y02169*
X04075Y02168*
X04075Y02168*
X04075Y02168*
X04075Y02168*
X04076Y02167*
X04076Y02167*
X04076Y02167*
X04076Y02167*
X04076Y02167*
X04076Y02166*
X04077Y02166*
X04077Y02166*
X04077Y02166*
X04077Y02166*
X04078Y02166*
X04078Y02166*
X04078Y02166*
X04078Y02166*
X04079Y02166*
X04079*
X04079Y02166*
X0408Y02166*
X0408Y02166*
X0408Y02166*
X0408Y02166*
X04081Y02166*
X04081Y02166*
X04081Y02166*
X04081Y02166*
X04082Y02167*
X04082Y02167*
X04082Y02167*
X04082Y02167*
X04082Y02167*
X04082Y02168*
X04083Y02168*
X04083Y02168*
X04083Y02168*
X04083Y02169*
X04083Y02169*
X04083Y02169*
X04083Y0217*
X04583D02*
D01*
X04583Y0217*
X04583Y0217*
X04583Y0217*
X04583Y02171*
X04583Y02171*
X04583Y02171*
X04582Y02171*
X04582Y02172*
X04582Y02172*
X04582Y02172*
X04582Y02172*
X04582Y02172*
X04581Y02173*
X04581Y02173*
X04581Y02173*
X04581Y02173*
X0458Y02173*
X0458Y02173*
X0458Y02173*
X0458Y02173*
X04579Y02173*
X04579Y02173*
X04579*
X04578Y02173*
X04578Y02173*
X04578Y02173*
X04578Y02173*
X04577Y02173*
X04577Y02173*
X04577Y02173*
X04577Y02173*
X04576Y02173*
X04576Y02172*
X04576Y02172*
X04576Y02172*
X04576Y02172*
X04576Y02172*
X04575Y02171*
X04575Y02171*
X04575Y02171*
X04575Y02171*
X04575Y0217*
X04575Y0217*
X04575Y0217*
X04575Y0217*
X04575Y02169*
X04575Y02169*
X04575Y02169*
X04575Y02168*
X04575Y02168*
X04575Y02168*
X04575Y02168*
X04576Y02167*
X04576Y02167*
X04576Y02167*
X04576Y02167*
X04576Y02167*
X04576Y02166*
X04577Y02166*
X04577Y02166*
X04577Y02166*
X04577Y02166*
X04578Y02166*
X04578Y02166*
X04578Y02166*
X04578Y02166*
X04579Y02166*
X04579*
X04579Y02166*
X0458Y02166*
X0458Y02166*
X0458Y02166*
X0458Y02166*
X04581Y02166*
X04581Y02166*
X04581Y02166*
X04581Y02166*
X04582Y02167*
X04582Y02167*
X04582Y02167*
X04582Y02167*
X04582Y02167*
X04582Y02168*
X04583Y02168*
X04583Y02168*
X04583Y02168*
X04583Y02169*
X04583Y02169*
X04583Y02169*
X04583Y0217*
X04903Y02449D02*
D01*
X04903Y02449*
X04903Y02449*
X04903Y0245*
X04903Y0245*
X04903Y0245*
X04903Y02451*
X04903Y02451*
X04903Y02451*
X04903Y02451*
X04903Y02451*
X04902Y02452*
X04902Y02452*
X04902Y02452*
X04902Y02452*
X04901Y02452*
X04901Y02452*
X04901Y02453*
X04901Y02453*
X049Y02453*
X049Y02453*
X049Y02453*
X049Y02453*
X04899*
X04899Y02453*
X04899Y02453*
X04899Y02453*
X04898Y02453*
X04898Y02453*
X04898Y02452*
X04898Y02452*
X04897Y02452*
X04897Y02452*
X04897Y02452*
X04897Y02452*
X04896Y02451*
X04896Y02451*
X04896Y02451*
X04896Y02451*
X04896Y02451*
X04896Y0245*
X04896Y0245*
X04896Y0245*
X04896Y02449*
X04896Y02449*
X04896Y02449*
X04896Y02449*
X04896Y02448*
X04896Y02448*
X04896Y02448*
X04896Y02448*
X04896Y02447*
X04896Y02447*
X04896Y02447*
X04896Y02447*
X04896Y02446*
X04897Y02446*
X04897Y02446*
X04897Y02446*
X04897Y02446*
X04898Y02445*
X04898Y02445*
X04898Y02445*
X04898Y02445*
X04899Y02445*
X04899Y02445*
X04899Y02445*
X04899Y02445*
X049*
X049Y02445*
X049Y02445*
X049Y02445*
X04901Y02445*
X04901Y02445*
X04901Y02445*
X04901Y02445*
X04902Y02446*
X04902Y02446*
X04902Y02446*
X04902Y02446*
X04903Y02446*
X04903Y02447*
X04903Y02447*
X04903Y02447*
X04903Y02447*
X04903Y02448*
X04903Y02448*
X04903Y02448*
X04903Y02448*
X04903Y02449*
X04903Y02449*
X03645Y047D02*
X03945D01*
X03645Y046D02*
Y047D01*
Y046D02*
X03945D01*
Y047*
X03901Y04166D02*
X04145D01*
Y03904D02*
Y04166D01*
X03884Y03904D02*
X04145D01*
X03884D02*
Y04166D01*
X03914*
X04105Y047D02*
X04405D01*
X04105Y046D02*
Y047D01*
Y046D02*
X04405D01*
Y047*
G54D45*
X03881Y03875D02*
D01*
X0388Y03875*
X0388Y03875*
X03879Y03874*
X03879Y03874*
X03878Y03874*
X03878Y03874*
X03877Y03874*
X03877Y03873*
X03876Y03873*
X03876Y03873*
X03876Y03872*
X03875Y03872*
X03875Y03872*
X03875Y03871*
X03874Y03871*
X03874Y0387*
X03874Y0387*
X03874Y03869*
X03873Y03869*
X03873Y03868*
X03873Y03868*
X03873Y03867*
X03873Y03866*
X03873Y03866*
X03873Y03865*
X03873Y03865*
X03874Y03864*
X03874Y03864*
X03874Y03863*
X03874Y03863*
X03875Y03862*
X03875Y03862*
X03875Y03861*
X03876Y03861*
X03876Y03861*
X03877Y0386*
X03877Y0386*
X03877Y0386*
X03878Y0386*
X03878Y03859*
X03879Y03859*
X0388Y03859*
X0388Y03859*
X03881Y03859*
X03881Y03859*
X03882Y03859*
X03882Y03859*
X03883Y03859*
X03883Y03859*
X03884Y03859*
X03884Y0386*
X03885Y0386*
X03885Y0386*
X03886Y0386*
X03886Y03861*
X03887Y03861*
X03887Y03862*
X03887Y03862*
X03888Y03862*
X03888Y03863*
X03888Y03863*
X03888Y03864*
X03889Y03864*
X03889Y03865*
X03889Y03865*
X03889Y03866*
X03889Y03867*
X03889Y03867*
X03889Y03868*
X03889Y03868*
X03889Y03869*
X03889Y03869*
X03888Y0387*
X03888Y0387*
X03888Y03871*
X03888Y03871*
X03887Y03872*
X03887Y03872*
X03887Y03872*
X03886Y03873*
X03886Y03873*
X03885Y03873*
X03885Y03874*
X03884Y03874*
X03884Y03874*
X03883Y03874*
X03883Y03874*
X03882Y03875*
X03882Y03875*
X03881Y03875*
G54D46*
X04408Y03455D02*
D01*
X04408Y03455*
X04408Y03455*
X04408Y03455*
X04408Y03455*
X04408Y03455*
X04408Y03455*
X04408Y03455*
X04408Y03456*
X04408Y03456*
X04408Y03456*
X04408Y03456*
X04408Y03456*
X04408Y03456*
X04408Y03456*
X04407Y03456*
X04407Y03456*
X04407Y03456*
X04407Y03456*
X04407Y03456*
X04407Y03456*
X04407Y03456*
X04406Y03456*
X04406*
X04406Y03456*
X04406Y03456*
X04406Y03456*
X04406Y03456*
X04406Y03456*
X04406Y03456*
X04405Y03456*
X04405Y03456*
X04405Y03456*
X04405Y03456*
X04405Y03456*
X04405Y03456*
X04405Y03456*
X04405Y03456*
X04405Y03455*
X04405Y03455*
X04405Y03455*
X04405Y03455*
X04405Y03455*
X04404Y03455*
X04404Y03455*
X04404Y03455*
D01*
X04404Y03454*
X04404Y03454*
X04405Y03454*
X04405Y03454*
X04405Y03454*
X04405Y03454*
X04405Y03454*
X04405Y03453*
X04405Y03453*
X04405Y03453*
X04405Y03453*
X04405Y03453*
X04405Y03453*
X04405Y03453*
X04405Y03453*
X04406Y03453*
X04406Y03453*
X04406Y03453*
X04406Y03453*
X04406Y03453*
X04406Y03453*
X04406Y03453*
X04406*
X04407Y03453*
X04407Y03453*
X04407Y03453*
X04407Y03453*
X04407Y03453*
X04407Y03453*
X04407Y03453*
X04408Y03453*
X04408Y03453*
X04408Y03453*
X04408Y03453*
X04408Y03453*
X04408Y03453*
X04408Y03453*
X04408Y03454*
X04408Y03454*
X04408Y03454*
X04408Y03454*
X04408Y03454*
X04408Y03454*
X04408Y03454*
X04408Y03455*
D01*
X04408Y03455*
X04408Y03455*
X04408Y03455*
X04408Y03455*
X04408Y03455*
X04408Y03455*
X04408Y03455*
X04408Y03456*
X04408Y03456*
X04408Y03456*
X04408Y03456*
X04408Y03456*
X04408Y03456*
X04408Y03456*
X04407Y03456*
X04407Y03456*
X04407Y03456*
X04407Y03456*
X04407Y03456*
X04407Y03456*
X04407Y03456*
X04406Y03456*
X04406*
X04406Y03456*
X04406Y03456*
X04406Y03456*
X04406Y03456*
X04406Y03456*
X04406Y03456*
X04405Y03456*
X04405Y03456*
X04405Y03456*
X04405Y03456*
X04405Y03456*
X04405Y03456*
X04405Y03456*
X04405Y03456*
X04405Y03455*
X04405Y03455*
X04405Y03455*
X04405Y03455*
X04405Y03455*
X04404Y03455*
X04404Y03455*
X04404Y03455*
X04314Y03362D02*
Y03386D01*
X03865Y03362D02*
X04314D01*
X03865D02*
X04314D01*
Y03386*
X03865Y03523D02*
Y03547D01*
X04314*
X03865D02*
X04314D01*
X03865Y03523D02*
Y03547D01*
Y03362D02*
Y03386D01*
Y03362D02*
Y03386D01*
X04314Y03523D02*
Y03547D01*
Y03523D02*
Y03547D01*
G54D47*
X0436Y03019D02*
D01*
X0436Y03019*
X0436Y03019*
X0436Y0302*
X0436Y0302*
X04359Y03021*
X04359Y03021*
X04359Y03021*
X04359Y03022*
X04359Y03022*
X04358Y03022*
X04358Y03023*
X04358Y03023*
X04358Y03023*
X04357Y03024*
X04357Y03024*
X04356Y03024*
X04356Y03024*
X04356Y03024*
X04355Y03024*
X04355Y03024*
X04355Y03025*
X04354Y03025*
X04354*
X04353Y03025*
X04353Y03024*
X04352Y03024*
X04352Y03024*
X04352Y03024*
X04351Y03024*
X04351Y03024*
X04351Y03024*
X0435Y03023*
X0435Y03023*
X0435Y03023*
X04349Y03022*
X04349Y03022*
X04349Y03022*
X04349Y03021*
X04348Y03021*
X04348Y03021*
X04348Y0302*
X04348Y0302*
X04348Y03019*
X04348Y03019*
X04348Y03019*
X04348Y03018*
X04348Y03018*
X04348Y03017*
X04348Y03017*
X04348Y03017*
X04348Y03016*
X04349Y03016*
X04349Y03016*
X04349Y03015*
X04349Y03015*
X0435Y03015*
X0435Y03014*
X0435Y03014*
X04351Y03014*
X04351Y03014*
X04351Y03013*
X04352Y03013*
X04352Y03013*
X04352Y03013*
X04353Y03013*
X04353Y03013*
X04354Y03013*
X04354*
X04355Y03013*
X04355Y03013*
X04355Y03013*
X04356Y03013*
X04356Y03013*
X04356Y03013*
X04357Y03014*
X04357Y03014*
X04358Y03014*
X04358Y03014*
X04358Y03015*
X04358Y03015*
X04359Y03015*
X04359Y03016*
X04359Y03016*
X04359Y03016*
X04359Y03017*
X0436Y03017*
X0436Y03017*
X0436Y03018*
X0436Y03018*
X0436Y03019*
X0433Y0294D02*
D01*
X0433Y0294*
X0433Y02941*
X0433Y02941*
X0433Y02941*
X0433Y02942*
X0433Y02942*
X0433Y02943*
X0433Y02943*
X04329Y02943*
X04329Y02944*
X04329Y02944*
X04328Y02944*
X04328Y02944*
X04328Y02945*
X04327Y02945*
X04327Y02945*
X04327Y02945*
X04326Y02945*
X04326Y02946*
X04326Y02946*
X04325Y02946*
X04325Y02946*
X04324*
X04324Y02946*
X04323Y02946*
X04323Y02946*
X04323Y02945*
X04322Y02945*
X04322Y02945*
X04322Y02945*
X04321Y02945*
X04321Y02944*
X04321Y02944*
X0432Y02944*
X0432Y02944*
X0432Y02943*
X04319Y02943*
X04319Y02943*
X04319Y02942*
X04319Y02942*
X04319Y02941*
X04319Y02941*
X04319Y02941*
X04319Y0294*
X04319Y0294*
X04319Y02939*
X04319Y02939*
X04319Y02939*
X04319Y02938*
X04319Y02938*
X04319Y02937*
X04319Y02937*
X04319Y02937*
X0432Y02936*
X0432Y02936*
X0432Y02936*
X04321Y02935*
X04321Y02935*
X04321Y02935*
X04322Y02935*
X04322Y02934*
X04322Y02934*
X04323Y02934*
X04323Y02934*
X04323Y02934*
X04324Y02934*
X04324Y02934*
X04325*
X04325Y02934*
X04326Y02934*
X04326Y02934*
X04326Y02934*
X04327Y02934*
X04327Y02934*
X04327Y02935*
X04328Y02935*
X04328Y02935*
X04328Y02935*
X04329Y02936*
X04329Y02936*
X04329Y02936*
X0433Y02937*
X0433Y02937*
X0433Y02937*
X0433Y02938*
X0433Y02938*
X0433Y02939*
X0433Y02939*
X0433Y02939*
X0433Y0294*
G54D48*
X0268Y02075D02*
X0298D01*
X0268Y023D02*
X0298D01*
Y02075D02*
Y023D01*
X0268Y02075D02*
Y023D01*
X04105Y02045D02*
Y0227D01*
X04305Y02045D02*
Y0227D01*
X04105D02*
X04305D01*
X04105Y02045D02*
X04305D01*
X01816Y04127D02*
Y04192D01*
X01923Y04127D02*
Y04192D01*
X04605Y02045D02*
X04805D01*
X04605Y0227D02*
X04805D01*
Y02045D02*
Y0227D01*
X04605Y02045D02*
Y0227D01*
X048Y04675D02*
X05025D01*
X048Y02475D02*
X05025D01*
Y04675*
X048Y02475D02*
Y04675D01*
G54D49*
X03207Y02505D02*
Y02685D01*
X03117D02*
X03207D01*
X03117Y02505D02*
Y02685D01*
Y02505D02*
X03207D01*
X0343D02*
Y02685D01*
X0334D02*
X0343D01*
X0334Y02505D02*
Y02685D01*
Y02505D02*
X0343D01*
X0358Y0252D02*
X0376D01*
Y0261*
X0358D02*
X0376D01*
X0358Y0252D02*
Y0261D01*
X031Y0212D02*
Y023D01*
Y0212D02*
X0319D01*
Y023*
X031D02*
X0319D01*
X0371Y0212D02*
Y023D01*
Y0212D02*
X038D01*
Y023*
X0371D02*
X038D01*
X03295Y0324D02*
X03475D01*
X03295Y0315D02*
Y0324D01*
Y0315D02*
X03475D01*
Y0324*
X04385Y02445D02*
Y02625D01*
Y02445D02*
X04475D01*
Y02625*
X04385D02*
X04475D01*
X0408Y0251D02*
X0426D01*
Y026*
X0408D02*
X0426D01*
X0408Y0251D02*
Y026D01*
X02045Y04765D02*
X0207Y0474D01*
X0202D02*
X02045Y04765D01*
X0197Y0474D02*
X0202D01*
X01945Y04765D02*
X0197Y0474D01*
X0192D02*
X01945Y04765D01*
X0187Y0474D02*
X0192D01*
X01845Y04765D02*
X0187Y0474D01*
X0182D02*
X01845Y04765D01*
X0177Y0474D02*
X0182D01*
X01745Y04765D02*
X0177Y0474D01*
X0172D02*
X01745Y04765D01*
X0167Y0474D02*
X0172D01*
X01645Y04765D02*
X0167Y0474D01*
X01645Y04765D02*
Y04815D01*
X0167Y0484*
X0172*
X01745Y04815*
X0177Y0484*
X0182*
X01845Y04815*
X0187Y0484*
X0192*
X01945Y04815*
X0197Y0484*
X0202*
X02045Y04815*
X0207Y0484*
X0212*
X02145Y04815*
X0217Y0484*
X0222*
X02245Y04815*
Y04765D02*
Y04815D01*
X0222Y0474D02*
X02245Y04765D01*
X0217Y0474D02*
X0222D01*
X02145Y04765D02*
X0217Y0474D01*
X0212D02*
X02145Y04765D01*
X0207Y0474D02*
X0212D01*
X02919Y03134D02*
X02999D01*
Y03095*
X02986Y03081*
X02959*
X02946Y03095*
Y03134*
X02999Y03055D02*
X02919D01*
Y03015*
X02932Y03001*
X02946*
X02959Y03015*
Y03055*
Y03015*
X02972Y03001*
X02986*
X02999Y03015*
Y03055*
X01845Y03005D02*
X01765D01*
Y03044*
X01778Y03058*
X01805*
X01818Y03044*
Y03005*
X01765Y03084D02*
X01845D01*
Y03124*
X01832Y03138*
X01818*
X01805Y03124*
Y03084*
Y03124*
X01792Y03138*
X01778*
X01765Y03124*
Y03084*
G54D50*
X03627Y03285D02*
Y0332D01*
X03532Y03285D02*
X03627D01*
X03532D02*
Y0332D01*
Y03439D02*
Y03474D01*
X03627*
Y03439D02*
Y03474D01*
X03594Y04312D02*
X03629D01*
Y04217D02*
Y04312D01*
X03594Y04217D02*
X03629D01*
X0344D02*
X03475D01*
X0344D02*
Y04312D01*
X03475*
X04552Y03439D02*
Y03474D01*
X04647*
Y03439D02*
Y03474D01*
Y03285D02*
Y0332D01*
X04552Y03285D02*
X04647D01*
X04552D02*
Y0332D01*
X03207Y03843D02*
Y03878D01*
X03112Y03843D02*
X03207D01*
X03112D02*
Y03878D01*
Y03996D02*
Y04032D01*
X03207*
Y03996D02*
Y04032D01*
X03594Y03837D02*
X03629D01*
Y03742D02*
Y03837D01*
X03594Y03742D02*
X03629D01*
X0344D02*
X03475D01*
X0344D02*
Y03837D01*
X03475*
X03594Y04075D02*
X03629D01*
Y03979D02*
Y04075D01*
X03594Y03979D02*
X03629D01*
X0344D02*
X03475D01*
X0344D02*
Y04075D01*
X03475*
X0441Y04077D02*
X04445D01*
X0441D02*
Y04172D01*
X04445*
X04564D02*
X04599D01*
Y04077D02*
Y04172D01*
X04564Y04077D02*
X04599D01*
X0441Y03772D02*
X04445D01*
X0441D02*
Y03867D01*
X04445*
X04564D02*
X04599D01*
Y03772D02*
Y03867D01*
X04564Y03772D02*
X04599D01*
X03839Y04477D02*
X03874D01*
Y04382D02*
Y04477D01*
X03839Y04382D02*
X03874D01*
X03685D02*
X0372D01*
X03685D02*
Y04477D01*
X0372*
X03112Y03579D02*
Y03614D01*
X03207*
Y03579D02*
Y03614D01*
Y03425D02*
Y0346D01*
X03112Y03425D02*
X03207D01*
X03112D02*
Y0346D01*
X01557Y04214D02*
Y0425D01*
X01652*
Y04214D02*
Y0425D01*
Y04061D02*
Y04096D01*
X01557Y04061D02*
X01652D01*
X01557D02*
Y04096D01*
X01807Y03879D02*
Y03914D01*
X01902*
Y03879D02*
Y03914D01*
Y03725D02*
Y0376D01*
X01807Y03725D02*
X01902D01*
X01807D02*
Y0376D01*
X0299Y02496D02*
Y02531D01*
X02894Y02496D02*
X0299D01*
X02894D02*
Y02531D01*
Y0265D02*
Y02685D01*
X0299*
Y0265D02*
Y02685D01*
X02767Y02496D02*
Y02531D01*
X02672Y02496D02*
X02767D01*
X02672D02*
Y02531D01*
Y0265D02*
Y02685D01*
X02767*
Y0265D02*
Y02685D01*
X01617Y02496D02*
Y02531D01*
X01522Y02496D02*
X01617D01*
X01522D02*
Y02531D01*
Y0265D02*
Y02685D01*
X01617*
Y0265D02*
Y02685D01*
X01867Y02496D02*
Y02531D01*
X01772Y02496D02*
X01867D01*
X01772D02*
Y02531D01*
Y0265D02*
Y02685D01*
X01867*
Y0265D02*
Y02685D01*
X01652Y03725D02*
Y0376D01*
X01557Y03725D02*
X01652D01*
X01557D02*
Y0376D01*
Y03879D02*
Y03914D01*
X01652*
Y03879D02*
Y03914D01*
G54D51*
X03412Y02257D02*
X03419D01*
X03412Y02182D02*
Y02257D01*
Y02182D02*
X03457D01*
X0353Y02257D02*
X03537D01*
Y02182D02*
Y02257D01*
X03492Y02182D02*
X03537D01*
X03455Y02257D02*
X03494D01*
G54D52*
X0415Y02969D02*
X04349D01*
X0415Y0285D02*
Y02969D01*
Y0285D02*
X04349D01*
Y02969*
M02*