%FSTAX23Y23*%
%MOIN*%
%SFA1B1*%

%IPPOS*%
%ADD9500C,0.014000*%
%ADD9501C,0.028000*%
%ADD9502C,0.035430*%
%ADD9503C,0.036000*%
%ADD9504C,0.040000*%
%ADD9505C,0.040160*%
%ADD9506C,0.050000*%
%LNesp_stm_v2-1*%
%LPD*%
G54D9500*
X0457Y028D03*
X04645Y0279D03*
X04635Y02865D03*
X0464Y0303D03*
X0467Y03205D03*
X04255Y03215D03*
X0416Y03225D03*
X0421Y0335D03*
X04132Y03655D03*
X04135Y03715D03*
X0404Y0374D03*
X04075Y03932D03*
X0406Y04015D03*
X04015Y03985D03*
X03955Y03975D03*
X0392Y0397D03*
X03965Y0403D03*
X04Y0406D03*
X03925Y04075D03*
X04035Y04135D03*
X0411D03*
Y0409D03*
X0412Y04035D03*
X04265Y04D03*
Y0407D03*
X04285Y0411D03*
X0428Y0417D03*
X04165Y0427D03*
X04105Y04285D03*
X04115Y04325D03*
X04135Y0436D03*
X0402Y0437D03*
X03985Y04265D03*
X04235Y0442D03*
X04345Y039D03*
X0371Y0377D03*
X0343Y04D03*
X03395Y0339D03*
X03655Y0331D03*
X04743Y0387D03*
X0482Y03795D03*
G54D9501*
X03475Y02345D03*
X0351Y0273D03*
X04045Y02735D03*
X0394Y02605D03*
X0438Y02645D03*
X04285Y02465D03*
X04235Y02905D03*
X02885Y02745D03*
X0262Y0261D03*
X02575Y02535D03*
X02335Y02515D03*
X02285Y0248D03*
X02345Y02395D03*
X02285Y02665D03*
X0233Y0298D03*
X02225Y0305D03*
X0195Y0248D03*
X0301Y0246D03*
Y03445D03*
X0282Y03415D03*
X0281Y03475D03*
X02755Y03225D03*
X0243Y03155D03*
X02335D03*
X02005Y0338D03*
X01735Y03975D03*
X02655Y0415D03*
X0296Y04115D03*
X0297Y0399D03*
X0293Y03785D03*
X03015Y03735D03*
X0268Y03775D03*
X0324Y038D03*
X0334Y0405D03*
X0339Y04115D03*
X03555Y0415D03*
X03585Y0438D03*
X0357Y0448D03*
X03695Y04275D03*
X03765Y0424D03*
X0389Y04275D03*
X0385Y0435D03*
X04195Y0439D03*
X0426Y04285D03*
X041Y04565D03*
X0446Y0404D03*
X04615Y0394D03*
X04365Y03805D03*
Y03735D03*
X04475Y03665D03*
Y03175D03*
X04295Y03255D03*
X04225Y0315D03*
X0378Y0366D03*
X03795Y0372D03*
X0386Y0376D03*
X03695Y0389D03*
X0359Y03705D03*
G54D9502*
X03695Y0465D03*
X03795D03*
X03895D03*
X04155D03*
X04255D03*
X04355D03*
G54D9503*
X02215Y02965D03*
X02549Y0297D03*
Y03174D03*
X02215Y0317D03*
G54D9504*
X01695Y0479D03*
X01795D03*
X01895D03*
X01995D03*
X02095D03*
X02195D03*
G54D9505*
X049Y02525D03*
Y02625D03*
Y02725D03*
Y02825D03*
Y02925D03*
Y03025D03*
X0293Y02175D03*
X0283D03*
X0273D03*
X049Y03125D03*
Y03225D03*
Y03325D03*
Y03425D03*
Y03525D03*
Y03625D03*
Y03725D03*
Y03825D03*
Y03925D03*
Y04025D03*
Y04125D03*
Y04225D03*
Y04325D03*
Y04425D03*
Y04525D03*
Y04625D03*
G54D9506*
X04755Y0217D03*
X04655D03*
X04255D03*
X04155D03*
M02*