%FSTAX23Y23*%
%MOIN*%
%SFA1B1*%

%IPPOS*%
%ADD30C,0.010000*%
%ADD31C,0.040000*%
%ADD32C,0.053940*%
%ADD33R,0.053940X0.053940*%
%ADD34R,0.059050X0.059050*%
%ADD35C,0.059050*%
%ADD36R,0.063780X0.063780*%
%ADD37C,0.063780*%
%ADD38C,0.060000*%
%ADD39C,0.074000*%
%ADD40R,0.053940X0.053940*%
%ADD41C,0.025000*%
%ADD42C,0.050000*%
%ADD43C,0.028000*%
%LNesp_stm_v2-1*%
%LPD*%
G54D30*
X03955Y03975D02*
Y03981D01*
X03969Y03947D02*
X04006Y03985D01*
X0394Y04005D02*
X03965Y0403D01*
X04006Y03985D02*
X04015D01*
X03955Y03981D02*
X04Y04026D01*
Y0406*
X04071Y04042D02*
X04087Y04026D01*
X04067Y04042D02*
X04071D01*
X04055Y04055D02*
X04067Y04042D01*
X04055Y04055D02*
Y04075D01*
X04087Y0399D02*
Y04026D01*
X04007Y03957D02*
X04026D01*
X0406Y03991*
X04018Y04095D02*
X04035D01*
X03955Y04158D02*
X04018Y04095D01*
X04035D02*
X04055Y04075D01*
X04235Y02905D02*
Y0292D01*
X03475Y02345D02*
Y02695D01*
X0351Y0273*
X0268Y03775D02*
X0269Y03765D01*
Y02875D02*
Y03765D01*
Y02875D02*
X0282Y02745D01*
X02885*
X02565D02*
X0282D01*
X02335Y02515D02*
X02565Y02745D01*
X02445Y03365D02*
Y03805D01*
X02655Y04015*
Y0415*
X0281Y03475D02*
X0298D01*
X0301Y03445*
X02815Y0342D02*
X0282Y03415D01*
X0278Y03225D02*
X02815Y0326D01*
X02755Y03225D02*
X0278D01*
X02335Y03155D02*
X0243D01*
X02005Y0327D02*
Y0338D01*
Y0327D02*
X02225Y0305D01*
X02285Y03205D02*
X02445Y03365D01*
X02285Y02665D02*
Y03205D01*
X0233Y0298D02*
X02539D01*
X02549Y0297*
X02345Y02395D02*
X02575D01*
X0262Y0244*
Y0261*
X0298Y03735D02*
X03015D01*
X0293Y03785D02*
X0298Y03735D01*
X0297Y0399D02*
X03025Y03935D01*
X0385Y0435D02*
X0389Y0431D01*
Y04275D02*
Y0431D01*
X02815Y0326D02*
Y0342D01*
X0476Y0277D02*
X04805Y02725D01*
X049*
X0458Y03805D02*
X0476Y03625D01*
Y0277D02*
Y03625D01*
X0469Y02745D02*
X0481Y02625D01*
X049*
X04045Y02735D02*
X046D01*
X0481Y02525*
X049*
X0394Y02605D02*
X04283D01*
X04363Y02685*
X04396*
X0442Y02661*
X04446*
X04755Y02353*
Y0217D02*
Y02353D01*
X0378Y0307D02*
Y0366D01*
Y0307D02*
X0391Y0294D01*
Y02715D02*
Y0294D01*
X03875Y0268D02*
X0391Y02715D01*
X03875Y0258D02*
Y0268D01*
Y0258D02*
X0399Y02465D01*
X04285*
X03765Y0424D02*
Y0433D01*
X03855Y0442*
X0465Y04075D02*
X049Y03825D01*
X03685Y043D02*
X03825Y0444D01*
X0473Y0406D02*
Y04133D01*
Y0406D02*
X04865Y03925D01*
X049*
X03791Y04435D02*
X03816Y0446D01*
X04866Y04025D02*
X049D01*
X03695Y04275D02*
Y0429D01*
X03685Y043D02*
X03695Y0429D01*
X0486Y04125D02*
X049D01*
X03585Y0438D02*
X0364Y04435D01*
X03791*
X0349Y04215D02*
X03555Y0415D01*
X0349Y04215D02*
Y04456D01*
X03553Y0452*
X04815Y0431D02*
Y04335D01*
Y0431D02*
X049Y04225D01*
X04057Y03932D02*
X04075D01*
X03695Y0389D02*
X0372Y03915D01*
X03955Y04158D02*
Y04311D01*
X0389Y04275D02*
X0398Y04365D01*
Y04386*
X04003Y0441*
X03855Y0442D02*
X03985D01*
X03816Y0446D02*
X03968D01*
X03825Y0444D02*
X03976D01*
X0357Y0448D02*
X0396D01*
X04003Y0441D02*
X04134D01*
X04174Y0437*
X041Y04565D02*
X04725D01*
X04865Y04425*
X049*
X03971Y04328D02*
X03978D01*
X03955Y04311D02*
X03971Y04328D01*
X03978D02*
X0402Y0437D01*
X0399Y04265D02*
X04035Y0422D01*
X03985Y04265D02*
X0399D01*
X04035Y04135D02*
Y0422D01*
X0465Y04075D02*
Y04185D01*
X0463Y04035D02*
Y04145D01*
X04941Y03783D02*
X04975Y0375D01*
Y037D02*
Y0375D01*
X049Y03625D02*
X04975Y037D01*
X04075Y0417D02*
X0409Y04185D01*
X04137Y04258D02*
X0415Y04246D01*
X04137Y04258D02*
Y04281D01*
X0409Y04185D02*
Y0427D01*
X04105Y04285*
X04622Y04527D02*
X04815Y04335D01*
X04477Y04507D02*
X0486Y04125D01*
X0396Y0448D02*
X0397Y0449D01*
X04404Y04487D02*
X04866Y04025D01*
X03968Y0446D02*
X03978Y0447D01*
X04395Y04467D02*
X0473Y04133D01*
X03976Y0444D02*
X03986Y0445D01*
X04387Y04447D02*
X0465Y04185D01*
X03985Y0442D02*
X03995Y0443D01*
X03553Y0452D02*
X04182D01*
X0419Y04527*
X04622*
X04198Y04507D02*
X04477D01*
X04207Y04487D02*
X04404D01*
X04215Y04467D02*
X04395D01*
X04223Y04447D02*
X04387D01*
X0397Y0449D02*
X04181D01*
X04198Y04507*
X03978Y0447D02*
X04189D01*
X04207Y04487*
X03986Y0445D02*
X04197D01*
X04215Y04467*
X03995Y0443D02*
X04206D01*
X04223Y04447*
X04235Y0442D02*
X04355D01*
X0463Y04145*
X04135Y0436D02*
X04156D01*
X0482Y03795D02*
Y03817D01*
X04156Y0436D02*
X04176Y0434D01*
X04201*
X04194Y0439D02*
X04195D01*
X04137Y04281D02*
X04156Y043D01*
X04218*
X04249Y04331*
X04174Y0437D02*
X04194Y0439D01*
X04115Y04325D02*
X0412Y0432D01*
X0421*
X04195Y0439D02*
X04197Y04392D01*
X04201Y0434D02*
X04234Y04372D01*
X0421Y0432D02*
X04242Y04352D01*
X0444Y0394D02*
X04615D01*
X0463Y04035D02*
X04645Y0402D01*
X04428Y0398D02*
X04631D01*
X04655Y03956*
X04695Y0397D02*
Y03973D01*
X04645Y0402D02*
X04648D01*
X04675Y03962D02*
Y03964D01*
X04436Y04D02*
X04639D01*
X04655Y03954D02*
Y03956D01*
X04648Y0402D02*
X04695Y03973D01*
X04639Y04D02*
X04675Y03964D01*
X04655Y03954D02*
X04689Y0392D01*
X04882Y03783D02*
X04941D01*
X04851Y03725D02*
X049D01*
X04792Y03783D02*
X04851Y03725D01*
X04792Y03783D02*
Y03792D01*
X04776Y0386D02*
X0482Y03817D01*
X04695Y0397D02*
X04705Y0396D01*
X04675Y03962D02*
X04697Y0394D01*
X04796Y03869D02*
X04882Y03783D01*
X04689Y0392D02*
X04693D01*
X04685Y039D02*
X04715Y03869D01*
Y03858D02*
Y03869D01*
Y03858D02*
X04731Y03842D01*
X04742*
X04792Y03792*
X0472Y0396D02*
X04796Y03883D01*
X04712Y0394D02*
X04776Y03875D01*
X04697Y0394D02*
X04712D01*
X04776Y0386D02*
Y03875D01*
X04705Y0396D02*
X0472D01*
X04796Y03869D02*
Y03883D01*
X04693Y0392D02*
X04743Y0387D01*
X04165Y0427D02*
X04215D01*
X04345Y039D02*
X04685D01*
X0436Y04203D02*
X04365Y04209D01*
X0438Y04195D02*
X04385Y042D01*
X044Y04186D02*
X04405Y04192D01*
X04245Y0424D02*
X04295D01*
X04345Y04217D02*
Y04233D01*
X04292Y04372D02*
X04405Y04258D01*
X04283Y04352D02*
X04385Y0425D01*
X04276Y04331D02*
X04365Y04242D01*
X04294Y04285D02*
X04345Y04233D01*
X0434Y04211D02*
X04345Y04217D01*
X0426Y04285D02*
X04294D01*
X04249Y04331D02*
X04276D01*
X04365Y04209D02*
Y04242D01*
X04242Y04352D02*
X04283D01*
X04385Y042D02*
Y0425D01*
X04234Y04372D02*
X04292D01*
X04405Y04192D02*
Y04258D01*
X04197Y04392D02*
X043D01*
X04295Y0424D02*
X04315Y04219D01*
X0432*
X04215Y0427D02*
X04245Y0424D01*
X04265Y03976D02*
Y04D01*
X04475Y03025D02*
X04635Y02865D01*
X04285Y0411D02*
X04295D01*
X04237Y04042D02*
X04265Y0407D01*
X04237Y03977D02*
Y04042D01*
X04165Y03905D02*
X04237Y03977D01*
X04205Y03916D02*
X04265Y03976D01*
X04165Y03896D02*
Y03905D01*
Y03896D02*
X04185Y03876D01*
X04255Y03215D02*
X04378D01*
X04458Y03135*
X04491*
X045Y03144*
X04614*
X0467Y032*
X0469Y03186D02*
X04697Y03193D01*
Y03659*
X04621Y03735D02*
X04697Y03659D01*
X0467Y032D02*
Y03205D01*
X0411Y04135D02*
X0415Y04175D01*
Y04246*
X04145Y03888D02*
Y03913D01*
Y03888D02*
X04165Y03868D01*
X04125Y031D02*
X04385Y0284D01*
X04595*
X04645Y0279*
X0406Y03991D02*
Y04015D01*
X0436Y04158D02*
Y04203D01*
X0438Y04167D02*
Y04195D01*
X044Y04175D02*
Y04186D01*
X0432Y04142D02*
Y04219D01*
X0434Y0415D02*
Y04211D01*
X044Y04175D02*
X0442Y04155D01*
X0438Y04167D02*
X044Y04147D01*
X0436Y04158D02*
X0438Y04138D01*
X0434Y0415D02*
X0436Y0413D01*
X0432Y04142D02*
X0434Y04122D01*
X0428Y0417D02*
X043Y0415D01*
Y04133D02*
Y0415D01*
Y04133D02*
X0432Y04113D01*
X04295Y0411D02*
X043Y04105D01*
Y04011D02*
Y04105D01*
X04292Y04004D02*
X043Y04011D01*
X04292Y03976D02*
Y04004D01*
X0438Y04D02*
X0444Y0394D01*
X044Y04008D02*
X04428Y0398D01*
X0442Y04016D02*
X04436Y04D01*
X0446Y0404D02*
Y04232D01*
X04295Y03893D02*
X0436Y03958D01*
X04275Y03902D02*
X0434Y03967D01*
Y04122*
X0436Y03958D02*
Y0413D01*
X0438Y04D02*
Y04138D01*
X044Y04008D02*
Y04147D01*
X0442Y04016D02*
Y04155D01*
X043Y04392D02*
X0446Y04232D01*
X0432Y03975D02*
Y04113D01*
X04235Y03918D02*
X04292Y03976D01*
X04255Y0391D02*
X0432Y03975D01*
X04182Y03241D02*
Y03361D01*
X0416Y03225D02*
X04162Y03227D01*
X04187Y03213D02*
Y03236D01*
X04182Y03241D02*
X04187Y03236D01*
X04225Y0315D02*
X04227Y03152D01*
X04185Y03182D02*
X04207Y03205D01*
X04165Y03125D02*
Y03191D01*
X04187Y03213*
X04185Y03133D02*
Y03182D01*
X04265Y03025D02*
X04475D01*
X04165Y03125D02*
X04265Y03025D01*
X04185Y03133D02*
X04208Y0311D01*
X04241*
X04249Y03118*
X04323Y03045*
X04483*
X04498Y0303*
X0464*
X042Y03969D02*
Y04044D01*
X04155Y0409D02*
X042Y04044D01*
X0411Y0409D02*
X04155D01*
X04145Y03913D02*
X042Y03969D01*
X04125Y03921D02*
X0418Y03977D01*
Y04029*
X04147Y04062D02*
X0418Y04029D01*
X04098Y04062D02*
X04147D01*
X04082Y04078D02*
X04098Y04062D01*
X04082Y04078D02*
Y04082D01*
X04075Y0409D02*
X04082Y04082D01*
X04075Y0409D02*
Y0417D01*
X0412Y03955D02*
Y04035D01*
X04102Y03937D02*
X0412Y03955D01*
X04125Y03813D02*
Y03921D01*
X04102Y03807D02*
Y03937D01*
Y03807D02*
X04129Y0378D01*
X04125Y03813D02*
X04138Y038D01*
X04129Y0378D02*
X04141D01*
X04138Y038D02*
X04149D01*
X04035Y03035D02*
X0425Y0282D01*
X0438*
X0469Y02745D02*
Y03186D01*
X0438Y0282D02*
X044Y028D01*
X0457*
X03477Y03307D02*
X03652D01*
X03655Y0331*
X03395Y0339D02*
X03477Y03307D01*
X03908Y03942D02*
X03931D01*
X03025Y03935D02*
X03887D01*
X039Y03922*
X0372Y03915D02*
X03879D01*
X03892Y03902*
X03999*
X039Y03922D02*
X03972D01*
X03931Y03942D02*
X03936Y03947D01*
X03868Y03982D02*
X03908Y03942D01*
X03936Y03947D02*
X03969D01*
X03972Y03922D02*
X04007Y03957D01*
X03999Y03902D02*
X04087Y0399D01*
X03902Y04005D02*
X0394D01*
X03905Y03985D02*
X0392Y0397D01*
X03894Y03985D02*
X03905D01*
X03876Y04002D02*
X03894Y03985D01*
X0334Y0405D02*
X03385Y04005D01*
X0339Y04115D02*
X0343Y04075D01*
X03925*
X03441Y03972D02*
X03451Y03982D01*
X03868*
X03418Y04027D02*
X0388D01*
X03385Y04005D02*
X03396D01*
X03418Y04027*
X03102Y03972D02*
X03441D01*
X0296Y04115D02*
X03102Y03972D01*
X0388Y04027D02*
X03902Y04005D01*
X0343Y04D02*
Y04002D01*
X0386Y0376D02*
X03895D01*
X04295Y03255D02*
X0435Y0331D01*
X0429Y03305D02*
X0433Y03345D01*
X04282Y03305D02*
X0429D01*
X04227Y0325D02*
X04282Y03305D01*
X04227Y03152D02*
Y0325D01*
X04207Y03265D02*
X0431Y03367D01*
X04207Y03205D02*
Y03265D01*
X04285Y03375D02*
Y03636D01*
X0426Y0335D02*
X04285Y03375D01*
X0421Y0335D02*
X0426D01*
X04265Y03405D02*
Y03628D01*
X04237Y03377D02*
X04265Y03405D01*
X04198Y03377D02*
X04237D01*
X04182Y03361D02*
X04198Y03377D01*
X04225Y0364D02*
X04245Y0362D01*
Y03425D02*
Y0362D01*
X04217Y03397D02*
X04245Y03425D01*
X0419Y03397D02*
X04217D01*
X04162Y03369D02*
X0419Y03397D01*
X04162Y03227D02*
Y03369D01*
X04182Y03417D02*
X04192D01*
X04125Y0336D02*
X04182Y03417D01*
X04125Y031D02*
Y0336D01*
X04205Y03631D02*
X04225Y03611D01*
Y0345D02*
Y03611D01*
X04192Y03417D02*
X04225Y0345D01*
X04185Y03623D02*
X04205Y03603D01*
Y03458D02*
Y03603D01*
X04184Y03437D02*
X04205Y03458D01*
X04172Y03437D02*
X04184D01*
X04105Y0337D02*
X04172Y03437D01*
X04125Y0303D02*
Y03055D01*
X04105Y03075D02*
X04125Y03055D01*
Y0303D02*
X04235Y0292D01*
X04105Y03075D02*
Y0337D01*
X04085Y03385D02*
X04165Y03465D01*
X04085Y03275D02*
Y03385D01*
X04035Y03225D02*
X04085Y03275D01*
X04035Y03035D02*
Y03225D01*
X04365Y03805D02*
X0458D01*
X04365Y03735D02*
X04621D01*
X04295Y03852D02*
Y03893D01*
Y03852D02*
X04325Y03822D01*
X04275Y03844D02*
Y03902D01*
Y03844D02*
X04305Y03814D01*
X04255Y03836D02*
X04285Y03806D01*
X04255Y03836D02*
Y0391D01*
X04235Y03827D02*
X04265Y03797D01*
X04235Y03827D02*
Y03918D01*
X04205Y03829D02*
X04245Y03789D01*
X04205Y03829D02*
Y03916D01*
X04185Y03821D02*
X04225Y03781D01*
X04185Y03821D02*
Y03876D01*
X04165Y03813D02*
X04205Y03773D01*
X04165Y03813D02*
Y03868D01*
X04149Y038D02*
X04185Y03764D01*
X04141Y0378D02*
X04165Y03756D01*
X03741Y0388D02*
X04005D01*
X03711Y0385D02*
X03741Y0388D01*
X03678Y0385D02*
X03711D01*
X03648Y0388D02*
X03678Y0385D01*
X03445Y0388D02*
X03648D01*
X03365Y038D02*
X03445Y0388D01*
X04005D02*
X04057Y03932D01*
X0324Y038D02*
X03365D01*
X04265Y03656D02*
X04285Y03636D01*
X04245Y03648D02*
X04265Y03628D01*
X04205Y03631D02*
Y03773D01*
X04185Y03623D02*
Y03764D01*
X04165Y03465D02*
Y03756D01*
X04285Y03701D02*
Y03806D01*
X04305Y0371D02*
Y03814D01*
X04325Y03718D02*
Y03822D01*
Y03718D02*
X0435Y03693D01*
X04225Y0364D02*
Y03781D01*
X04245Y03648D02*
Y03789D01*
X04265Y03656D02*
Y03797D01*
X04305Y0371D02*
X0433Y03685D01*
X04285Y03701D02*
X0431Y03676D01*
X0435Y0331D02*
Y03693D01*
X0433Y03345D02*
Y03685D01*
X0431Y03367D02*
Y03676D01*
X04051Y03712D02*
X04053Y03715D01*
X04135*
X03942Y03712D02*
X04051D01*
X03895Y0376D02*
X03942Y03712D01*
X0398Y038D02*
X0404Y0374D01*
X0374Y038D02*
X0398D01*
X0371Y0377D02*
X0374Y038D01*
X0343Y04002D02*
X03876D01*
G54D31*
X0195Y0248D02*
X02285D01*
X01735Y03975D02*
Y0461D01*
X0179Y04665*
X0185*
X01895Y0471*
Y0479*
X02285Y0248D02*
X02292D01*
X02312Y0246*
X025*
X02575Y02535*
X0301Y0246D02*
X0321D01*
X0344Y0223*
X04078*
X0411Y02261*
X04475Y03175D02*
Y03665D01*
X0195Y0248D02*
Y0327D01*
X01735Y03485D02*
X0195Y0327D01*
X01735Y03485D02*
Y03975D01*
X0359Y03705D02*
X036Y03715D01*
X04159Y02261D02*
X0438Y02482D01*
X0411Y02261D02*
X04159D01*
X0438Y02482D02*
Y02645D01*
X04107Y0368D02*
X0413Y03657D01*
X04065Y03677D02*
X04068Y0368D01*
X04107*
X03864Y03677D02*
X04065D01*
X03827Y03715D02*
X03864Y03677D01*
X036Y03715D02*
X03827D01*
X0413Y03655D02*
Y03657D01*
G54D32*
X0273Y02175D03*
X0283D03*
X049Y02625D03*
Y02725D03*
Y02825D03*
Y02925D03*
Y03025D03*
Y03125D03*
Y03225D03*
Y03325D03*
Y03425D03*
Y03525D03*
Y03625D03*
Y03725D03*
Y03825D03*
Y03925D03*
Y04025D03*
Y04125D03*
Y04225D03*
Y04325D03*
Y04425D03*
Y04525D03*
Y04625D03*
G54D33*
X0293Y02175D03*
G54D34*
X03895Y0465D03*
X04355D03*
G54D35*
X03795Y0465D03*
X03695D03*
X04255D03*
X04155D03*
G54D36*
X04155Y0217D03*
X04655D03*
G54D37*
X04255Y0217D03*
X04755D03*
G54D38*
X02549Y03174D03*
Y0297D03*
X02215Y02965D03*
Y0317D03*
G54D39*
X02195Y0479D03*
X02095D03*
X01995D03*
X01895D03*
X01795D03*
X01695D03*
G54D40*
X049Y02525D03*
G54D41*
X03955Y03975D03*
X04015Y03985D03*
X04Y0406D03*
X04035Y04135D03*
X03965Y0403D03*
X04075Y03932D03*
X03985Y04265D03*
X04165Y0427D03*
X04105Y04285D03*
X04135Y0436D03*
X04235Y0442D03*
X0482Y03795D03*
X04115Y04325D03*
X04743Y0387D03*
X04265Y04D03*
X04635Y02865D03*
X04285Y0411D03*
X04265Y0407D03*
X04255Y03215D03*
X0467Y03205D03*
X0411Y04135D03*
Y0409D03*
X04645Y0279D03*
X0406Y04015D03*
X0428Y0417D03*
X04345Y039D03*
X0421Y0335D03*
X0416Y03225D03*
X0464Y0303D03*
X03925Y04075D03*
X0412Y04035D03*
X0457Y028D03*
X03395Y0339D03*
X03655Y0331D03*
X0392Y0397D03*
X0343Y04D03*
X04132Y03655D03*
X04135Y03715D03*
X0404Y0374D03*
X0371Y0377D03*
G54D42*
X04225Y0315D03*
X04295Y03255D03*
X04235Y02905D03*
X03475Y02345D03*
X0351Y0273D03*
X02575Y02535D03*
X02285Y0248D03*
X0195D03*
X01735Y03975D03*
X0268Y03775D03*
X02885Y02745D03*
X02335Y02515D03*
X02285Y02665D03*
X02655Y0415D03*
X0281Y03475D03*
X0301Y03445D03*
X0282Y03415D03*
X02755Y03225D03*
X0243Y03155D03*
X02335D03*
X02005Y0338D03*
X02225Y0305D03*
X0233Y0298D03*
X02345Y02395D03*
X0262Y0261D03*
X03015Y03735D03*
X0293Y03785D03*
X0301Y0246D03*
X0438Y02645D03*
X04475Y03175D03*
Y03665D03*
X0296Y04115D03*
X0297Y0399D03*
X0334Y0405D03*
X0359Y03705D03*
X0385Y0435D03*
X0389Y04275D03*
X0324Y038D03*
X04045Y02735D03*
X0394Y02605D03*
X03795Y0372D03*
X0378Y0366D03*
X04285Y02465D03*
X03765Y0424D03*
X03585Y0438D03*
X03695Y04275D03*
X0357Y0448D03*
X0339Y04115D03*
X03555Y0415D03*
X04615Y0394D03*
X03695Y0389D03*
X041Y04565D03*
X0386Y0376D03*
X0426Y04285D03*
X04195Y0439D03*
X0446Y0404D03*
X04365Y03805D03*
Y03735D03*
G54D43*
X0402Y0437D03*
M02*